<svg width="323" height="328" viewBox="0 0 323 328" fill="none" xmlns="http://www.w3.org/2000/svg">
<path d="M286 164C286 233.588 230.259 290 161.5 290C92.7405 290 37 233.588 37 164C37 94.4121 92.7405 38 161.5 38C230.259 38 286 94.4121 286 164Z" fill="white"/>
<path fill-rule="evenodd" clip-rule="evenodd" d="M161.189 0C241.189 0 322.189 25 322.189 164C322.189 280.5 250.107 328 161.189 328C72.2711 328 -3.81121 289.5 0.188811 164C-4.31126 47.5002 72.2711 0.000135687 161.189 0ZM142.751 254.553L148.286 260.741C152.351 260.92 156.588 261 160.997 261C165.233 261 169.309 260.921 173.227 260.752L178.991 254.296L160.893 234.004L142.751 254.553ZM183.208 260.083C183.499 260.056 183.788 260.027 184.077 259.998L183.68 259.554L183.208 260.083ZM137.921 260.024C138.043 260.036 138.165 260.048 138.286 260.06L138.086 259.836L137.921 260.024ZM100.657 248.66C108.431 253.925 118.05 257.139 129.522 258.961L133.387 254.582L114.285 233.224L100.657 248.66ZM188.372 254.298L192.486 258.91C203.767 257.082 213.254 253.893 220.958 248.744L207.152 233.264L188.372 254.298ZM118.95 227.939L138.052 249.298L156.2 228.742L137.123 207.354L118.95 227.939ZM165.559 228.72L183.683 249.04L202.462 228.006L184.233 207.567L165.559 228.72ZM211.843 228.009L226.489 244.429C233.35 238.187 238.396 229.793 241.635 218.625L230.935 206.627L211.843 228.009ZM80.1683 218.152C83.3454 229.499 88.3394 238.001 95.1615 244.308L109.585 227.97L90.4193 206.541L80.1683 218.152ZM141.789 202.069L160.866 223.458L179.54 202.306L160.464 180.918L141.789 202.069ZM188.899 202.282L207.155 222.751L226.245 201.369L207.883 180.781L188.899 202.282ZM95.0843 201.257L114.25 222.686L132.431 202.093L113.292 180.634L95.0843 201.257ZM235.627 201.372L243.611 210.323C244.775 204.246 245.513 197.48 245.825 189.952L235.627 201.372ZM76.1956 190.639C76.508 197.663 77.1894 204.016 78.2425 209.757L85.7201 201.287L76.1956 190.639ZM175.403 164L165.13 175.633L184.206 197.021L203.191 175.52L192.916 164H175.403ZM127.98 164L117.958 175.35L137.097 196.809L155.773 175.657L145.375 164H127.98ZM222.701 164L212.549 175.497L230.938 196.114L245.992 179.255C245.968 173.832 245.857 168.754 245.659 164H222.701ZM76.3363 164C76.1298 168.947 76.017 174.246 76.0003 179.919L90.3851 196.003L108.6 175.372L98.4564 164H76.3363ZM154.755 164L160.438 170.372L166.066 164H154.755ZM202.295 164L207.857 170.235L213.363 164H202.295ZM107.836 164L113.266 170.088L118.642 164H107.836ZM161 67C81.0006 67 81.0006 127.5 78.0003 137C78.0003 137.502 78.0079 138.002 78.0199 138.501H114.184C114.063 137.183 114 135.849 114 134.501C114 102.501 114 88.001 161 88.001C208 88.001 208 100.501 208 134.501C208 135.849 207.938 137.183 207.817 138.501H243.981C243.993 138.002 244 137.502 244 137C242.501 109.002 226.5 67.0001 161 67Z" fill="#5BA0D1"/>
</svg>
