<svg width="323" height="328" viewBox="0 0 323 328" fill="none" xmlns="http://www.w3.org/2000/svg">
<path d="M161.189 0C241.189 6.0608e-05 322.189 25.0002 322.189 164C322.189 280.5 250.107 328 161.189 328C72.2714 328 -3.81082 289.5 0.189209 164C-4.31088 47.5 72.2714 0 161.189 0ZM142.751 254.553L148.286 260.741C152.35 260.92 156.588 261 160.997 261C165.232 261 169.309 260.921 173.226 260.752L178.99 254.296L160.892 234.004L142.751 254.553ZM183.208 260.083C183.498 260.056 183.788 260.027 184.076 259.998L183.679 259.554L183.208 260.083ZM137.921 260.024C138.042 260.036 138.164 260.048 138.286 260.06L138.086 259.836L137.921 260.024ZM100.656 248.66C108.431 253.925 118.05 257.139 129.521 258.961L133.386 254.582L114.284 233.224L100.656 248.66ZM188.372 254.298L192.485 258.91C203.766 257.082 213.253 253.893 220.958 248.744L207.151 233.264L188.372 254.298ZM118.949 227.939L138.052 249.298L156.199 228.742L137.123 207.354L118.949 227.939ZM165.558 228.72L183.682 249.04L202.462 228.006L184.232 207.567L165.558 228.72ZM211.843 228.009L226.488 244.429C233.349 238.187 238.395 229.793 241.635 218.625L230.934 206.627L211.843 228.009ZM80.1677 218.152C83.3448 229.499 88.3389 238.001 95.1609 244.308L109.585 227.97L90.4187 206.541L80.1677 218.152ZM141.789 202.069L160.865 223.458L179.54 202.306L160.464 180.918L141.789 202.069ZM188.898 202.282L207.154 222.751L226.245 201.369L207.883 180.781L188.898 202.282ZM95.0837 201.257L114.25 222.686L132.43 202.093L113.292 180.634L95.0837 201.257ZM235.627 201.372L243.61 210.323C244.774 204.246 245.512 197.48 245.824 189.952L235.627 201.372ZM76.1951 190.639C76.5074 197.663 77.1888 204.016 78.2419 209.757L85.7195 201.287L76.1951 190.639ZM175.402 164L165.13 175.633L184.206 197.021L203.19 175.52L192.916 164H175.402ZM127.979 164L117.958 175.35L137.096 196.809L155.772 175.657L145.375 164H127.979ZM222.7 164L212.549 175.497L230.937 196.114L245.991 179.255C245.968 173.832 245.856 168.754 245.658 164H222.7ZM76.3357 164C76.1292 168.947 76.0164 174.246 75.9998 179.919L90.3845 196.003L108.599 175.372L98.4558 164H76.3357ZM154.755 164L160.437 170.372L166.065 164H154.755ZM202.295 164L207.856 170.235L213.362 164H202.295ZM107.836 164L113.265 170.088L118.641 164H107.836ZM161 67C81.0003 67.0002 81 127.5 77.9998 137C77.9998 137.502 78.0074 138.002 78.0193 138.501H114.183C114.062 137.183 114 135.849 114 134.501C114 102.501 114 88.001 161 88.001C208 88.001 208 100.501 208 134.501C208 135.849 207.937 137.183 207.816 138.501H243.98C243.992 138.002 244 137.502 244 137C242.5 109.002 226.5 67.0001 161 67Z" fill="#5BA0D1"/>
</svg>
