<svg width="323" height="328" viewBox="0 0 323 328" fill="none" xmlns="http://www.w3.org/2000/svg">
<path d="M162 0C242 0 323 25 323 164C323 280.5 250.918 328 162 328C73.0824 328 -2.99979 289.5 1.00024 164C-3.49984 47.5 73.0824 1.60533e-05 162 0ZM162.403 59.876C161.451 58.9633 160.052 58.9675 159.107 59.8867C154.173 64.6836 136.035 82.8555 119.127 106.647C102.234 130.419 86.5002 159.895 86.5002 187.282C86.5004 216.986 98.4921 235.072 113.808 245.711C129.095 256.33 147.644 259.5 160.751 259.5C173.85 259.5 192.276 256.714 207.442 246.281C222.639 235.827 234.5 217.738 234.5 187.282C234.5 159.216 218.894 129.706 202.125 106.082C185.344 82.4403 167.333 64.6062 162.403 59.876Z" fill="#376397"/>
</svg>
