<svg width="323" height="328" viewBox="0 0 323 328" fill="none" xmlns="http://www.w3.org/2000/svg">
<path d="M271 164C271 235.797 221.751 294 161 294C100.249 294 51 235.797 51 164C51 92.203 100.249 34 161 34C221.751 34 271 92.203 271 164Z" fill="white"/>
<path fill-rule="evenodd" clip-rule="evenodd" d="M161.189 0C241.189 4.20985e-05 322.189 25.0001 322.189 164C322.189 280.5 250.107 328 161.189 328C72.2709 328 -3.81128 289.5 0.188752 164C-4.31134 47.5 72.2709 0 161.189 0ZM161.591 59.876C160.64 58.9634 159.241 58.9676 158.295 59.8867C153.362 64.6836 135.223 82.8555 118.316 106.647C101.422 130.419 85.6887 159.895 85.6888 187.282C85.6889 216.986 97.6806 235.072 112.996 245.711C128.283 256.33 146.832 259.5 159.94 259.5C173.038 259.5 191.464 256.714 206.63 246.281C221.827 235.827 233.689 217.738 233.689 187.282C233.689 159.216 218.083 129.706 201.314 106.082C184.532 82.4405 166.521 64.6064 161.591 59.876Z" fill="#376397"/>
</svg>
